<mxfile host="www.draw.io" modified="2019-11-12T08:35:30.081Z" agent="Mozilla/5.0 (Macintosh; Intel Mac OS X 10_14_0) AppleWebKit/537.36 (KHTML, like Gecko) Chrome/78.0.3904.97 Safari/537.36" etag="m0HtEI1tdV9HDrPxRbJ_" version="12.2.3" type="github" pages="1">
  <diagram id="JurpRLZEfTIco8AsEmpA" name="Page-1">
    <mxGraphModel dx="932" dy="551" grid="1" gridSize="10" guides="1" tooltips="1" connect="1" arrows="1" fold="1" page="1" pageScale="1" pageWidth="827" pageHeight="1169" math="0" shadow="0">
      <root>
        <mxCell id="0"/>
        <mxCell id="1" parent="0"/>
        <mxCell id="ulMPEoC2NyJxhrqzNHBb-44" value="" style="rounded=0;whiteSpace=wrap;html=1;dashed=1;strokeWidth=2;" parent="1" vertex="1">
          <mxGeometry x="413" y="445" width="323" height="218" as="geometry"/>
        </mxCell>
        <mxCell id="ulMPEoC2NyJxhrqzNHBb-43" value="" style="rounded=0;whiteSpace=wrap;html=1;dashed=1;strokeWidth=2;" parent="1" vertex="1">
          <mxGeometry x="78.5" y="445" width="323" height="218" as="geometry"/>
        </mxCell>
        <mxCell id="ulMPEoC2NyJxhrqzNHBb-42" value="" style="rounded=0;whiteSpace=wrap;html=1;dashed=1;strokeWidth=2;" parent="1" vertex="1">
          <mxGeometry x="413" y="220" width="323" height="218" as="geometry"/>
        </mxCell>
        <mxCell id="ulMPEoC2NyJxhrqzNHBb-41" value="" style="rounded=0;whiteSpace=wrap;html=1;dashed=1;strokeWidth=2;" parent="1" vertex="1">
          <mxGeometry x="78.5" y="221" width="323" height="218" as="geometry"/>
        </mxCell>
        <mxCell id="ulMPEoC2NyJxhrqzNHBb-1" value="&lt;font style=&quot;font-size: 18px&quot;&gt;审批流程生命周期&lt;/font&gt;" style="text;html=1;strokeColor=none;fillColor=none;align=center;verticalAlign=middle;whiteSpace=wrap;rounded=0;" parent="1" vertex="1">
          <mxGeometry x="70" y="180" width="170" height="20" as="geometry"/>
        </mxCell>
        <mxCell id="ulMPEoC2NyJxhrqzNHBb-3" value="&lt;font style=&quot;font-size: 18px&quot; color=&quot;#ff3399&quot;&gt;定义&lt;/font&gt;" style="text;html=1;strokeColor=none;fillColor=none;align=center;verticalAlign=middle;whiteSpace=wrap;rounded=0;" parent="1" vertex="1">
          <mxGeometry x="331.5" y="410" width="70" height="20" as="geometry"/>
        </mxCell>
        <mxCell id="ulMPEoC2NyJxhrqzNHBb-7" value="&lt;font style=&quot;font-size: 18px&quot; color=&quot;#ff3399&quot;&gt;审核&lt;/font&gt;" style="text;html=1;strokeColor=none;fillColor=none;align=center;verticalAlign=middle;whiteSpace=wrap;rounded=0;" parent="1" vertex="1">
          <mxGeometry x="413" y="451" width="70" height="20" as="geometry"/>
        </mxCell>
        <mxCell id="ulMPEoC2NyJxhrqzNHBb-8" value="&lt;font style=&quot;font-size: 18px&quot; color=&quot;#ff3399&quot;&gt;结束&lt;/font&gt;" style="text;html=1;strokeColor=none;fillColor=none;align=center;verticalAlign=middle;whiteSpace=wrap;rounded=0;" parent="1" vertex="1">
          <mxGeometry x="331.5" y="451" width="70" height="20" as="geometry"/>
        </mxCell>
        <mxCell id="ulMPEoC2NyJxhrqzNHBb-30" value="" style="edgeStyle=orthogonalEdgeStyle;rounded=0;orthogonalLoop=1;jettySize=auto;html=1;entryX=0;entryY=0.5;entryDx=0;entryDy=0;" parent="1" source="ulMPEoC2NyJxhrqzNHBb-9" target="ulMPEoC2NyJxhrqzNHBb-10" edge="1">
          <mxGeometry relative="1" as="geometry">
            <mxPoint x="342.5" y="250" as="targetPoint"/>
          </mxGeometry>
        </mxCell>
        <mxCell id="ulMPEoC2NyJxhrqzNHBb-9" value="&lt;font style=&quot;font-size: 18px&quot;&gt;审批模板&lt;/font&gt;" style="rounded=0;whiteSpace=wrap;html=1;fillColor=#dae8fc;strokeColor=#6c8ebf;" parent="1" vertex="1">
          <mxGeometry x="107.5" y="230" width="105" height="40" as="geometry"/>
        </mxCell>
        <mxCell id="ulMPEoC2NyJxhrqzNHBb-10" value="&lt;span style=&quot;font-size: 18px&quot;&gt;待审核流程&lt;/span&gt;" style="rounded=0;whiteSpace=wrap;html=1;fillColor=#dae8fc;strokeColor=#6c8ebf;" parent="1" vertex="1">
          <mxGeometry x="612.5" y="230" width="105" height="40" as="geometry"/>
        </mxCell>
        <mxCell id="ulMPEoC2NyJxhrqzNHBb-34" value="" style="edgeStyle=orthogonalEdgeStyle;rounded=0;orthogonalLoop=1;jettySize=auto;html=1;entryX=1;entryY=0.5;entryDx=0;entryDy=0;" parent="1" source="ulMPEoC2NyJxhrqzNHBb-11" target="ulMPEoC2NyJxhrqzNHBb-12" edge="1">
          <mxGeometry relative="1" as="geometry">
            <mxPoint x="532.5" y="604" as="targetPoint"/>
          </mxGeometry>
        </mxCell>
        <mxCell id="ulMPEoC2NyJxhrqzNHBb-11" value="&lt;span style=&quot;font-size: 18px&quot;&gt;审核中流程&lt;/span&gt;" style="rounded=0;whiteSpace=wrap;html=1;fillColor=#dae8fc;strokeColor=#6c8ebf;" parent="1" vertex="1">
          <mxGeometry x="612.5" y="610" width="105" height="40" as="geometry"/>
        </mxCell>
        <mxCell id="ulMPEoC2NyJxhrqzNHBb-36" value="" style="edgeStyle=orthogonalEdgeStyle;rounded=0;orthogonalLoop=1;jettySize=auto;html=1;dashed=1;" parent="1" source="ulMPEoC2NyJxhrqzNHBb-12" target="ulMPEoC2NyJxhrqzNHBb-9" edge="1">
          <mxGeometry relative="1" as="geometry">
            <mxPoint x="160" y="504" as="targetPoint"/>
          </mxGeometry>
        </mxCell>
        <mxCell id="ulMPEoC2NyJxhrqzNHBb-12" value="&lt;span style=&quot;font-size: 18px&quot;&gt;流程结束&lt;/span&gt;" style="rounded=0;whiteSpace=wrap;html=1;fillColor=#dae8fc;strokeColor=#6c8ebf;" parent="1" vertex="1">
          <mxGeometry x="97.5" y="610" width="125" height="40" as="geometry"/>
        </mxCell>
        <mxCell id="ulMPEoC2NyJxhrqzNHBb-13" value="节点" style="rounded=0;whiteSpace=wrap;html=1;fillColor=#fff2cc;strokeColor=#d6b656;" parent="1" vertex="1">
          <mxGeometry x="244.5" y="287.5" width="60" height="25" as="geometry"/>
        </mxCell>
        <mxCell id="ulMPEoC2NyJxhrqzNHBb-14" value="候选人组" style="rounded=0;whiteSpace=wrap;html=1;fillColor=#fff2cc;strokeColor=#d6b656;" parent="1" vertex="1">
          <mxGeometry x="244" y="373" width="56" height="30" as="geometry"/>
        </mxCell>
        <mxCell id="ulMPEoC2NyJxhrqzNHBb-15" value="分支流转" style="rounded=0;whiteSpace=wrap;html=1;fillColor=#fff2cc;strokeColor=#d6b656;" parent="1" vertex="1">
          <mxGeometry x="244.5" y="329" width="60" height="30" as="geometry"/>
        </mxCell>
        <mxCell id="ulMPEoC2NyJxhrqzNHBb-18" value="发起者" style="rounded=0;whiteSpace=wrap;html=1;fillColor=#fff2cc;strokeColor=#d6b656;" parent="1" vertex="1">
          <mxGeometry x="501" y="285" width="60" height="30" as="geometry"/>
        </mxCell>
        <mxCell id="ulMPEoC2NyJxhrqzNHBb-19" value="表单" style="rounded=0;whiteSpace=wrap;html=1;fillColor=#fff2cc;strokeColor=#d6b656;" parent="1" vertex="1">
          <mxGeometry x="500" y="329" width="60" height="30" as="geometry"/>
        </mxCell>
        <mxCell id="ulMPEoC2NyJxhrqzNHBb-22" value="通过" style="rounded=0;whiteSpace=wrap;html=1;fillColor=#d5e8d4;strokeColor=#82b366;" parent="1" vertex="1">
          <mxGeometry x="483.5" y="483" width="60" height="30" as="geometry"/>
        </mxCell>
        <mxCell id="ulMPEoC2NyJxhrqzNHBb-23" value="驳回" style="rounded=0;whiteSpace=wrap;html=1;fillColor=#d5e8d4;strokeColor=#82b366;" parent="1" vertex="1">
          <mxGeometry x="483.5" y="573" width="60" height="30" as="geometry"/>
        </mxCell>
        <mxCell id="ulMPEoC2NyJxhrqzNHBb-62" style="edgeStyle=orthogonalEdgeStyle;rounded=0;orthogonalLoop=1;jettySize=auto;html=1;exitX=0;exitY=0.5;exitDx=0;exitDy=0;entryX=1;entryY=0.5;entryDx=0;entryDy=0;dashed=1;endSize=6;" parent="1" source="ulMPEoC2NyJxhrqzNHBb-24" target="ulMPEoC2NyJxhrqzNHBb-22" edge="1">
          <mxGeometry relative="1" as="geometry"/>
        </mxCell>
        <mxCell id="ulMPEoC2NyJxhrqzNHBb-24" value="备注" style="rounded=0;whiteSpace=wrap;html=1;fillColor=#fff2cc;strokeColor=#d6b656;" parent="1" vertex="1">
          <mxGeometry x="574.5" y="483" width="60" height="30" as="geometry"/>
        </mxCell>
        <mxCell id="ulMPEoC2NyJxhrqzNHBb-60" style="edgeStyle=orthogonalEdgeStyle;rounded=0;orthogonalLoop=1;jettySize=auto;html=1;exitX=0;exitY=0.5;exitDx=0;exitDy=0;entryX=1;entryY=0.5;entryDx=0;entryDy=0;dashed=1;endSize=6;" parent="1" source="ulMPEoC2NyJxhrqzNHBb-25" target="ulMPEoC2NyJxhrqzNHBb-23" edge="1">
          <mxGeometry relative="1" as="geometry"/>
        </mxCell>
        <mxCell id="ulMPEoC2NyJxhrqzNHBb-25" value="驳回原因" style="rounded=0;whiteSpace=wrap;html=1;fillColor=#fff2cc;strokeColor=#d6b656;" parent="1" vertex="1">
          <mxGeometry x="574.5" y="573" width="60" height="30" as="geometry"/>
        </mxCell>
        <mxCell id="ulMPEoC2NyJxhrqzNHBb-63" style="edgeStyle=orthogonalEdgeStyle;rounded=0;orthogonalLoop=1;jettySize=auto;html=1;exitX=0;exitY=0.5;exitDx=0;exitDy=0;entryX=0.5;entryY=1;entryDx=0;entryDy=0;dashed=1;endSize=6;" parent="1" source="ulMPEoC2NyJxhrqzNHBb-26" target="ulMPEoC2NyJxhrqzNHBb-22" edge="1">
          <mxGeometry relative="1" as="geometry"/>
        </mxCell>
        <mxCell id="ulMPEoC2NyJxhrqzNHBb-64" style="edgeStyle=orthogonalEdgeStyle;rounded=0;orthogonalLoop=1;jettySize=auto;html=1;exitX=0;exitY=0.5;exitDx=0;exitDy=0;dashed=1;endSize=6;" parent="1" source="ulMPEoC2NyJxhrqzNHBb-26" target="ulMPEoC2NyJxhrqzNHBb-23" edge="1">
          <mxGeometry relative="1" as="geometry"/>
        </mxCell>
        <mxCell id="ulMPEoC2NyJxhrqzNHBb-26" value="审批人" style="rounded=0;whiteSpace=wrap;html=1;fillColor=#fff2cc;strokeColor=#d6b656;" parent="1" vertex="1">
          <mxGeometry x="574.5" y="528" width="60" height="30" as="geometry"/>
        </mxCell>
        <mxCell id="ulMPEoC2NyJxhrqzNHBb-59" style="edgeStyle=orthogonalEdgeStyle;rounded=0;orthogonalLoop=1;jettySize=auto;html=1;exitX=0.5;exitY=1;exitDx=0;exitDy=0;entryX=0;entryY=0.5;entryDx=0;entryDy=0;dashed=1;endSize=6;" parent="1" source="ulMPEoC2NyJxhrqzNHBb-27" target="ulMPEoC2NyJxhrqzNHBb-23" edge="1">
          <mxGeometry relative="1" as="geometry"/>
        </mxCell>
        <mxCell id="ulMPEoC2NyJxhrqzNHBb-61" style="edgeStyle=orthogonalEdgeStyle;rounded=0;orthogonalLoop=1;jettySize=auto;html=1;exitX=0.5;exitY=0;exitDx=0;exitDy=0;entryX=0;entryY=0.5;entryDx=0;entryDy=0;dashed=1;endSize=6;" parent="1" source="ulMPEoC2NyJxhrqzNHBb-27" target="ulMPEoC2NyJxhrqzNHBb-22" edge="1">
          <mxGeometry relative="1" as="geometry"/>
        </mxCell>
        <mxCell id="ulMPEoC2NyJxhrqzNHBb-27" value="&amp;nbsp;表单" style="rounded=0;whiteSpace=wrap;html=1;fillColor=#fff2cc;strokeColor=#d6b656;" parent="1" vertex="1">
          <mxGeometry x="420" y="526" width="60" height="30" as="geometry"/>
        </mxCell>
        <mxCell id="ulMPEoC2NyJxhrqzNHBb-28" value="审批日志" style="rounded=0;whiteSpace=wrap;html=1;fillColor=#fff2cc;strokeColor=#d6b656;" parent="1" vertex="1">
          <mxGeometry x="264.5" y="562" width="60" height="30" as="geometry"/>
        </mxCell>
        <mxCell id="ulMPEoC2NyJxhrqzNHBb-45" value="" style="edgeStyle=orthogonalEdgeStyle;rounded=0;orthogonalLoop=1;jettySize=auto;html=1;entryX=0.5;entryY=0;entryDx=0;entryDy=0;" parent="1" source="ulMPEoC2NyJxhrqzNHBb-10" target="ulMPEoC2NyJxhrqzNHBb-11" edge="1">
          <mxGeometry relative="1" as="geometry">
            <mxPoint x="665" y="270" as="sourcePoint"/>
            <mxPoint x="665" y="610" as="targetPoint"/>
          </mxGeometry>
        </mxCell>
        <mxCell id="ulMPEoC2NyJxhrqzNHBb-46" value="&lt;span style=&quot;font-size: 18px&quot;&gt;&lt;font color=&quot;#ff3399&quot;&gt;开始&lt;/font&gt;&lt;/span&gt;" style="text;html=1;strokeColor=none;fillColor=none;align=center;verticalAlign=middle;whiteSpace=wrap;rounded=0;" parent="1" vertex="1">
          <mxGeometry x="415" y="410" width="70" height="20" as="geometry"/>
        </mxCell>
        <mxCell id="ulMPEoC2NyJxhrqzNHBb-49" value="" style="endArrow=none;dashed=1;html=1;endSize=6;" parent="1" edge="1">
          <mxGeometry width="50" height="50" relative="1" as="geometry">
            <mxPoint x="228" y="385" as="sourcePoint"/>
            <mxPoint x="228" y="249" as="targetPoint"/>
          </mxGeometry>
        </mxCell>
        <mxCell id="ulMPEoC2NyJxhrqzNHBb-50" value="" style="endArrow=none;dashed=1;html=1;" parent="1" edge="1">
          <mxGeometry width="50" height="50" relative="1" as="geometry">
            <mxPoint x="230" y="299" as="sourcePoint"/>
            <mxPoint x="246" y="299" as="targetPoint"/>
          </mxGeometry>
        </mxCell>
        <mxCell id="ulMPEoC2NyJxhrqzNHBb-51" value="" style="endArrow=none;dashed=1;html=1;" parent="1" edge="1">
          <mxGeometry width="50" height="50" relative="1" as="geometry">
            <mxPoint x="229" y="345" as="sourcePoint"/>
            <mxPoint x="245" y="345" as="targetPoint"/>
          </mxGeometry>
        </mxCell>
        <mxCell id="ulMPEoC2NyJxhrqzNHBb-52" value="" style="endArrow=none;dashed=1;html=1;" parent="1" edge="1">
          <mxGeometry width="50" height="50" relative="1" as="geometry">
            <mxPoint x="229" y="385" as="sourcePoint"/>
            <mxPoint x="245" y="385" as="targetPoint"/>
          </mxGeometry>
        </mxCell>
        <mxCell id="ulMPEoC2NyJxhrqzNHBb-53" value="" style="endArrow=none;dashed=1;html=1;endSize=6;" parent="1" edge="1">
          <mxGeometry width="50" height="50" relative="1" as="geometry">
            <mxPoint x="579" y="345" as="sourcePoint"/>
            <mxPoint x="579" y="249" as="targetPoint"/>
          </mxGeometry>
        </mxCell>
        <mxCell id="ulMPEoC2NyJxhrqzNHBb-54" value="" style="endArrow=none;dashed=1;html=1;" parent="1" edge="1">
          <mxGeometry width="50" height="50" relative="1" as="geometry">
            <mxPoint x="563" y="301" as="sourcePoint"/>
            <mxPoint x="579" y="301" as="targetPoint"/>
          </mxGeometry>
        </mxCell>
        <mxCell id="ulMPEoC2NyJxhrqzNHBb-55" value="" style="endArrow=none;dashed=1;html=1;" parent="1" edge="1">
          <mxGeometry width="50" height="50" relative="1" as="geometry">
            <mxPoint x="562" y="344" as="sourcePoint"/>
            <mxPoint x="578" y="344" as="targetPoint"/>
          </mxGeometry>
        </mxCell>
        <mxCell id="ulMPEoC2NyJxhrqzNHBb-56" value="" style="endArrow=none;dashed=1;html=1;endSize=6;" parent="1" edge="1">
          <mxGeometry width="50" height="50" relative="1" as="geometry">
            <mxPoint x="248" y="629" as="sourcePoint"/>
            <mxPoint x="248" y="579" as="targetPoint"/>
          </mxGeometry>
        </mxCell>
        <mxCell id="ulMPEoC2NyJxhrqzNHBb-57" value="" style="endArrow=none;dashed=1;html=1;" parent="1" edge="1">
          <mxGeometry width="50" height="50" relative="1" as="geometry">
            <mxPoint x="249" y="578" as="sourcePoint"/>
            <mxPoint x="265" y="578" as="targetPoint"/>
          </mxGeometry>
        </mxCell>
      </root>
    </mxGraphModel>
  </diagram>
</mxfile>
